<svg xmlns="http://www.w3.org/2000/svg" xmlns:xlink="http://www.w3.org/1999/xlink" width="192" height="90"><defs><path id="A" d="M0 0h192v90H0z"/></defs><g fill-rule="evenodd"><mask id="B" fill="#fff"><use xlink:href="#A"/></mask><path d="M55.272 86.352c-.194-.558-1.242-.142-2.397-.784-1.536-.854-2.453-5.522-2.453-9.285l.012-20.294c.13-4.013 3.488-3.737 3.488-4.155l-.033-2.448c-.006-.332-.276-.596-.608-.596a35.73 35.73 0 0 0-1.55.036c-1.214.055-10.92.11-12.3.178-1.557.078-2.37 1.916-2.702 2.605S31.56 69.19 31.56 69.19l-7.726-19.78a.62.62 0 0 0-.576-.394L7.28 49a.62.62 0 0 0-.62.627l.053 3.698c.004.29.207.538.5.596.438.09 1.126.062 2.094.528 1.386.666 3.302 2.106 3.302 4.498 0 1.308.42 12.927-.132 18.087-.507 4.73-1.99 6.44-2.934 7.315-.753.7-2.487 1.475-3.084 1.696-.12.044-.2.153-.202.28-.008.48-.002 1.608.003 2.205a.46.46 0 0 0 .467.457l16.527-.103c.436 0 .412-.468.412-.468l-.013-1.875c0-.173-.068-.22-.354-.238-.895-.056-3.48.017-5.194-1.82-1.92-2.057-2.495-6.886-2.495-9.666l.028-16.6c.004.26 10.445 23.318 11.887 26.503a.62.62 0 0 0 .564.362h1.388c.276 0 .518-.18.595-.444l7.808-26.633c.43-1.5.96-2.003.96-2.003s.427 18.208-.053 23.72-4.17 6.16-4.626 6.246c-.202.038-.486.02-.486.287v2.31c0 .17.136.308.306.31l20.947.13c.7 0 .55-2.07.354-2.627zM185.106 66.1l-7.452-.085.054-7.28c0-.302-.188-.463-.832-.463-.572 0-.75.036-1.125.304-.26.186-4.817 3.744-7.154 5.016-1.953 1.063-4.292 2-5.007 2.28a.46.46 0 0 0-.284.328c-.12.522-.27 1.698.784 1.698 1.9 0 3.995.004 3.982 1.835l-.313 14.39c0 .672.232 1.644.487 2.15.91 1.807 2.564 3.406 6.28 3.637 5 .3 9.223-1.568 10.46-4.78.45-1.165.527-3.413.05-3.39-.285.015-.56.053-.737.082-.12.02-.207.1-.244.225-.73 2.3-6.4 3.39-6.4-1.457V68.58l7.55.02c.79.006.715-2.488-.098-2.488zm-36.827 11.57l7.964-3.665c.046-.02.075-.066.072-.116-.02-.423-.187-2.42-1.555-4.002-1.54-1.778-4.43-1.39-5.67.694-1.845 3.102-.812 7.09-.812 7.09zm17.435 4.422c-1.226 2.438-4.167 7.737-11.967 7.85-6.326.09-13.66-4.046-13.774-11.866-.1-6.935 6.17-12.84 13.816-12.953s9.266 7.187 9.36 7.592c.086.364.284.95-.058 1.15-.8.468-2.312 1.217-4.278 2.04l-9.548 4.075c1.924 3.68 5.8 4.204 8.915 3.622 3.107-.58 5.932-3.918 6.232-4.15.215-.166.448-.074.543.05.075.1.582 1.525.79 2.11a.61.61 0 0 1-.03.48zm-79.498 4.487c-.004 2.33-2.05 3.033-5.052 2.9-3.348-.16-5.27-2.708-5.882-4.626-.776 1.345-3.863 5.16-11.505 5.148-1.643-.003-4.126-.236-6.213-2.117-1.1-.993-1.777-2.34-1.777-3.84 0-1.895.575-4.608 3.742-5.782 3.776-1.4 11.186-3.47 14.43-4.274-.017-.872 1.01-5.26-3.406-6.107-2.04-.392-4.235.503-5.043 1.75-1.573 2.427-.842 4.08-1.906 5.378-.858 1.047-2.186 1.405-3.608 1.44s-3.492-1.01-3.312-3.803c.146-2.27 4.36-7.49 12.607-7.49 7.37 0 12.926 2.648 13.377 6.925.398 3.778-.124 9.64-.123 11.046.002 1.928 1.55 2.462 3.153 2.443.524-.006.52.2.518 1.02zM71.773 82.37c1.498-1.223 2.42-2.816 2.42-5.172v-.607c-3.252.857-8.766 3.3-9.542 4.997-.572 1.25-.035 2.4 1.036 2.678 1 .25 3.743.013 6.085-1.897zm70.302 4.765c-1.115-.452-2.163-.404-3.896-4.524-1.248-2.963-2.866-4.758-4.25-6.174-2.305-2.36-4.387-3.23-6.173-3.5-.408-.062-.852-.113-1.312-.154l.826-.587c1.34-.767 3.422-1.898 5.357-2.958 3.882-2.13 6.545-2.235 7.68-2.338 1.002-.1.933-1.24.675-2.096-.205-.684-1.365-.444-2.51-.444-5.138 0-8.323-.152-10.403-.152-.407 0-.645.14-.645.4 0 .584.024.928.024 1.285 0 .322.19.503.417.535.375.054.798.094 1.072.125 1.224.14 1.088 1.38-1.174 2.82l-4.592 2.853.135-15.222c-.327-.885-1.465-1.496-2.632-1.167-.718.204-9.224 2.223-11.167 2.683-.252.06-.436.27-.47.526-.094.725-.12 2.036 1.113 1.958 2.297-.144 3.817 1.867 3.817 3.71 0 1.734.402 15.73-.2 18.615-.42 2.047-2.164 2.433-3.105 2.55s-1.333.158-1.387.696c-.083.813-.092 2.47.894 2.47l15.266-.187c1.677 0 2.888.18 2.863-1.598-.017-1.26-.728-1.24-.96-1.27-2.81-.376-4.222-3.307-4.222-6.2l.022-2.854c.068-2.496 1.378-2.38 2.113-.906l4.404 8.948c1.68 3.415 4.29 3.878 7.185 3.93 3.303.06 4.542.01 5.192-.04.934-.072 1.24-1.223.03-1.714zM108.884 64.37c-1.84-.535-5.01-.07-7.4 2.734-.96 1.126-1.242 1.417-2.258 2.907 0-1.988-.06-3.37-.06-3.63 0-1.166-1.49-1.66-2.65-1.31-.71.213-8.34 2.335-10.14 2.836a.62.62 0 0 0-.448.53c-.083.724-.092 2.046 1.143 1.947 2.293-.183 3.767 1.976 4.37 3.646.628 1.735.25 7.105.314 9.193s-2.123 2.467-3.06 2.6-1.33.18-1.376.72c-.07.813-.053 2.355.634 2.355h15.53c1.144 0 1.624-.095 1.624-.976v-1.225c0-.43.006-.82-.61-.893-2.258-.262-5.192-2.237-5.192-8.483 0-2.834.515-6.13 2.248-6.13.306 2.535 1.817 4.034 4.1 4.056 4.59.043 6.643-2.676 6.643-6.283 0-2.687-1.6-4.065-3.412-4.592zm63.4-42.934c-.314-.416-.425-.71-.425-1.14 0-.75.564-1.428 1.33-1.927 1.4-.908 3.55-1.08 5.61-.452 4.292 1.313 4.927 4.224 5.02 5.11.016.153.142.268.297.27.435.01 1.358.018 2.62-.055 1.78-.102 2.03-1.082 2.136-1.53.203-.86.003-4.992-.154-6.11-.167-1.198-3.222-1.292-3.627-1.262-.714.052-1.18.216-1.425.5-.146.17-.192.37-.192.632 0 .656.54 1.775.54 1.775s-.235-.145-.498-.27c-1.433-.682-4.816-2.565-10.4-2.123-6.5.515-10.058 3.18-9.98 7.665.088 5.034 4.977 7.555 6.69 8.04 4.63 1.32 8.786 1.432 10.126 1.904.81.286 1.43.666 1.382 1.475-.1 1.698-2.337 2.747-6.923 2.624-5.867-.158-7.835-5.108-8.497-6.62-.273-.627-.345-.733-.604-.733h-.003a236.69 236.69 0 0 0-2.63.133c-.156.01-.277.13-.282.287l-.3 9.942c.016.23.056.77.653.85l2.653.347c.33.043.635-.182.69-.51.15-.906.577-2.563 1.722-2.833.562-.134 1.164.292 2 .876 1.6 1.113 9.197 5.16 17.11 1.227 3.162-1.57 5.074-3.577 5.074-6.72 0-5.776-7.33-7.37-12.005-8.165-3.28-.56-6.74-1.922-7.7-3.21zm-91.49 0c-.314-.416-.425-.71-.425-1.14 0-.75.564-1.428 1.33-1.927 1.4-.908 3.55-1.08 5.6-.452 4.293 1.313 4.928 4.224 5.02 5.11.016.153.142.268.297.27.435.01 1.358.018 2.62-.055 1.78-.102 2.03-1.082 2.136-1.53.203-.86.003-4.992-.154-6.11-.167-1.198-3.223-1.292-3.627-1.262-.714.052-1.18.216-1.425.5-.146.17-.193.37-.193.632 0 .656.542 1.775.542 1.775s-.235-.145-.498-.27c-1.433-.682-4.817-2.565-10.4-2.123-6.5.515-10.06 3.18-9.98 7.665.088 5.034 4.977 7.555 6.69 8.04 4.63 1.32 8.786 1.432 10.126 1.904.8.286 1.43.666 1.382 1.475-.1 1.698-2.337 2.747-6.922 2.624-5.868-.158-7.835-5.108-8.497-6.62-.274-.627-.346-.733-.604-.733h-.002c-.078-.001-1.9.092-2.63.133-.156.01-.277.13-.282.287l-.3 9.942c.017.23.056.77.653.85l2.653.347c.33.043.635-.182.69-.51.15-.906.577-2.563 1.723-2.833.56-.134 1.164.292 2 .876 1.59 1.113 9.197 5.16 17.11 1.227 3.162-1.57 5.073-3.577 5.073-6.72 0-5.776-7.33-7.37-12.005-8.165-3.28-.56-6.74-1.922-7.7-3.21zm79.877-4.066l-7.452-.085.054-7.28c0-.302-.188-.462-.832-.462-.572 0-.75.036-1.125.304-.26.186-4.817 3.744-7.154 5.015-1.953 1.063-4.292 2-5.007 2.28a.46.46 0 0 0-.284.328c-.12.52-.27 1.698.784 1.698 1.89 0 3.995.004 3.982 1.836l-.313 14.39c0 .672.232 1.644.487 2.15.91 1.807 2.564 3.406 6.28 3.637 5 .31 9.224-1.568 10.46-4.78.45-1.165.527-3.413.05-3.388a7.08 7.08 0 0 0-.737.082c-.12.02-.207.1-.243.226-.732 2.3-6.4 3.388-6.4-1.457V19.84l7.55.02c.79.006.715-2.488-.098-2.488zm-23.805 12.534c.026-2.804.462-11.858.163-12.782s-1.447-1.603-2.662-1.313c-.78.186-10.13 2.05-11.59 2.34-.12.024-.213.117-.24.238-.135.61-.438 2.144 1.017 2.305 2.36.26 3.826 2.153 3.777 3.985l-.27 9.475c-.06 2.154-2.293 3.382-4.24 3.436-.357.01-.57.09-.57.482 0 .68-.017 1.286.03 1.49.032.137.093.316.52.316l18.33.164c.8 0 1.048-.1 1.048-.48v-1.345c0-.416-.12-.487-.54-.56-2.78-.475-4.84-.53-4.773-7.75zm-1.278-21.12c-.067-.87-.334-1.624-.737-2.257-.11-.238-.24-.474-.414-.706C132.2 2.82 127.05.028 121.3.028c-8.812 0-15.33 5.335-15.783 15.402l-5.093-.065c-.25 0-.447.12-.482.386-.07.517-.322 1.9.606 1.948 3.613.148 4.78-.083 4.724 1.75s.003 12.826-.06 14.98-2.226 2.415-3.152 2.496-1.312.105-1.39.658c-.08.567-.046 1.547-.016 2.114.013.247.216.438.464.435l18.464-.136c1.058.053.778-2.906.036-2.914-3.674-.04-4.364-2.064-4.364-7.16 0-2.237.248-11.642.248-11.642h5.24c1.048 0 .967-2.387.086-2.387l-5.264-.145v-3.664c0-5.973 1.2-8.66 4.66-8.66 5.254 0 3.793 5.317 5.25 8.38.78 2.035 3.04 2.648 4.658 2.38 3.452-.574 5.687-2.4 5.455-5.394zM69.73 38.93c.02-1.3-.596-1.296-.892-1.355-1.67-.334-3.76-2.49-3.962-6.757-.133-2.8.518-12.603.208-13.523s-1.466-1.587-2.677-1.28c-.777.195-9.88 2.172-11.312 2.483-.12.027-.21.12-.236.24-.127.612-.38 2.294 1.045 2.294 2.373 0 3.85 2.108 3.824 3.94s-.33 7.324-.363 9.48-2.303 2.442-3.276 2.535-1.378.123-1.45.676c-.11.835.03 1.986.043 2.156.02.264.223.406.494.406.982 0 12.276-.058 15.602.214 1.724.14 2.923.322 2.952-1.5zm-4.9-30.92c.046-2.932-2.595-4.27-4.58-4.285-3.76-.027-6.248 1.534-6.553 4.748s1.864 5.45 4.695 5.508c4.734.097 6.39-2.874 6.437-5.97zM49.03 37.563c.195.557.356 2.628-.354 2.628-.263 0-18.333-.103-20.947-.13a.31.31 0 0 1-.305-.309v-2.3c0-.266.284-.25.486-.287.455-.086 4.145-.737 4.626-6.246s.053-23.72.053-23.72-.532.504-.96 2.003l-7.81 26.633c-.076.265-.318.445-.594.445h-1.388a.62.62 0 0 1-.564-.363L9.385 9.406a7616.3 7616.3 0 0 0-.028 16.61c0 2.78.574 7.61 2.495 9.666 1.715 1.837 4.3 1.765 5.194 1.82.286.018.354.066.354.238l.013 1.876s.024.468-.412.468l-16.527.103a.46.46 0 0 1-.466-.457l-.004-2.205c.002-.128.083-.237.202-.28.597-.22 2.33-.997 3.084-1.696.944-.876 2.427-2.586 2.934-7.315.552-5.16.132-16.778.132-18.086 0-2.392-1.916-3.832-3.302-4.498C2.086 5.183 1.398 5.21.96 5.12c-.283-.058-.486-.307-.5-.596L.417.828a.62.62 0 0 1 .62-.627l1.096.001 14.883.024a.62.62 0 0 1 .576.393l7.726 19.78L30.486 2.82C30.818 2.13 31.63.292 33.188.214c1.38-.07 11.086-.123 12.3-.178C46.105.008 46.65 0 47.037 0c.332 0 .602.264.608.596l.033 2.45c0 .417-3.36.142-3.488 4.154s-.012 17.225-.012 20.294c0 3.763.917 8.432 2.453 9.285 1.155.642 2.203.227 2.397.784z" fill="#282927" mask="url(#B)"/></g></svg>